<svg width="60" height="49" viewBox="0 0 60 49" fill="none" xmlns="http://www.w3.org/2000/svg">
<path d="M49.5 42.875H10.5C9.675 42.875 9 43.5641 9 44.4062V47.4688C9 48.3109 9.675 49 10.5 49H49.5C50.325 49 51 48.3109 51 47.4688V44.4062C51 43.5641 50.325 42.875 49.5 42.875ZM55.5 12.25C53.0156 12.25 51 14.3076 51 16.8438C51 17.5232 51.15 18.1549 51.4125 18.7387L44.625 22.8922C43.1813 23.7727 41.3156 23.275 40.4812 21.782L32.8406 8.13477C33.8438 7.29258 34.5 6.0293 34.5 4.59375C34.5 2.05762 32.4844 0 30 0C27.5156 0 25.5 2.05762 25.5 4.59375C25.5 6.0293 26.1563 7.29258 27.1594 8.13477L19.5187 21.782C18.6844 23.275 16.8094 23.7727 15.375 22.8922L8.59687 18.7387C8.85 18.1645 9.00937 17.5232 9.00937 16.8438C9.00937 14.3076 6.99375 12.25 4.50937 12.25C2.025 12.25 0 14.3076 0 16.8438C0 19.3799 2.01562 21.4375 4.5 21.4375C4.74375 21.4375 4.9875 21.3992 5.22188 21.3609L12 39.8125H48L54.7781 21.3609C55.0125 21.3992 55.2562 21.4375 55.5 21.4375C57.9844 21.4375 60 19.3799 60 16.8438C60 14.3076 57.9844 12.25 55.5 12.25Z" fill="#049213"/>
</svg>
